# xmcd
#
# Track frame offsets:
# 150
# 16200
# 29272
# 44658
# 62411
# 78358
# 95861
# 112554
# 125597
# 142953
# 154844
# 170337
# 183940
# 196952
# 209843
# 227016
# 240463
# 252520
#
# Disc length: 3542 seconds
#
#
# Revision: 0
# Processed by: cddbd v1.5.2PL0 Copyright (c) Steve Scherf et al.
# Submitted via: FreeRIP 2.944 
#
DISCID=f00dd412
DTITLE=Dionísio Costa - Regionalista
DYEAR=2014
DGENRE=
TTITLE0=DE A CAVALO NA ALEGRIA - Dionísio Costa
TTITLE1=QUERMESSE NO POVOADO - Dionísio Costa
TTITLE2=DEPOIS DO FIM - Dionísio Costa
TTITLE3=MESTRE ALBINO MANIQUE - Dionísio Costa
TTITLE4=PRA BAILAR NA CADEIAS - Dionísio Costa
TTITLE5=PELOS BAILES DA VIDA - Dionísio Costa
TTITLE6=RAZÃO DE SER - Dionísio Costa
TTITLE7=UM RETRATO DA SAUDADE - Dionísio Costa
TTITLE8=GAUCHINHO DE SETEMBRO - Dionísio Costa
TTITLE9=LOUQUINHO DE SAUDADE - Dionísio Costa
TTITLE10=TÔ LARGANDO NA PERNADA - Dionísio Costa
TTITLE11=BOBEOU, PERDEU - Dionísio Costa
TTITLE12=SÓ MAIS UMA CUIA - Dionísio Costa
TTITLE13=DE VOLTA PRA CASA - Dionísio Costa
TTITLE14=TEU SORRISO NA PAREDE - Dionísio Costa
TTITLE15=PEDINDO VAZA - Dionísio Costa
TTITLE16=GURIA LOIRA - Dionísio Costa
TTITLE17=É TUDO POR TUA CONTA - Dionísio Costa
EXTD=
EXTT0=
EXTT1=
EXTT2=
EXTT3=
EXTT4=
EXTT5=
EXTT6=
EXTT7=
EXTT8=
EXTT9=
EXTT10=
EXTT11=
EXTT12=
EXTT13=
EXTT14=
EXTT15=
EXTT16=
EXTT17=
PLAYORDER=
